# File created by Blade
# Date/Time:  Thu Jan 22 16:36:26 2015
# Frame Rate: 120.000 fps
#------------------------------------------------------
:FULLY-SPECIFIED
:DEGREES
3849
root 4.033228 18.727903 38.103921 4.356566 16.510755 -3.084840
RightUpLeg -88.396294 -12.889688 -6.598695
RightLeg 97.409943 -0.000000 -0.000000
RightFoot -17.882640 -7.969284 19.074549
RightToeBase -351.213977 -0.000000 -0.000000
LeftUpLeg 11.092080 -13.520501 8.654938
LeftLeg 107.949880 -0.000000 -0.000000
LeftFoot -21.012646 -1.596756 -19.087530
LeftToeBase -22.312610 -0.000000 0.000000
Spine 16.348450 4.353848 -5.261110
RightShoulder 2.948766 -13.874230 -14.636426
RightArm 25.550095 -19.737612 53.436211
RightForeArm -8.570706 0.000000 75.714911
RightHand 20.024334 -0.000000 -24.883411
RightHandThumb1 -24.326973 -0.000000 -32.862282
LeftShoulder -21.320064 27.523816 -1.134319
LeftArm 49.599866 20.995663 -66.126987
LeftForeArm 26.611857 -0.000000 58.241346
LeftHand -16.407889 -0.000000 -5.282299
LeftHandThumb1 -26.253704 0.000000 33.147579
Head -25.993633 -13.434598 2.672024
3850
root 4.051087 18.768948 37.980164 4.053022 16.548217 -3.283482
RightUpLeg -88.028182 -12.865710 -6.534953
RightLeg 96.896853 -0.000000 -0.000000
RightFoot -17.475268 -8.104747 19.011563
RightToeBase -351.169122 -0.000000 -0.000000
LeftUpLeg 10.958743 -13.466463 8.718290
LeftLeg 107.884779 -0.000000 -0.000000
LeftFoot -21.119884 -1.711162 -19.084683
LeftToeBase -22.152636 -0.000000 0.000000
Spine 16.494135 4.361240 -5.267733
RightShoulder 3.097463 -13.889228 -14.663109
RightArm 25.781618 -19.776635 53.307579
RightForeArm -8.375758 -0.000000 75.164414
RightHand 20.117444 -0.000000 -25.009064
RightHandThumb1 -24.326973 -0.000000 -32.862282
LeftShoulder -20.852850 27.290654 -0.657333
LeftArm 50.102396 21.384440 -65.554935
LeftForeArm 26.330293 -0.000000 58.405373
LeftHand -16.330635 -0.000000 -5.278390
LeftHandThumb1 -26.253704 0.000000 33.147579
Head -25.771323 -13.418084 2.579479
3851
root 4.071561 18.806476 37.860752 3.743808 16.505918 -3.451743
RightUpLeg -87.675418 -12.773229 -6.433014
RightLeg 96.361452 -0.000000 -0.000000
RightFoot -17.109060 -8.539175 18.683387
RightToeBase -351.074493 -0.000000 -0.000000
LeftUpLeg 10.881390 -13.324548 8.732369
LeftLeg 107.777978 -0.000000 -0.000000
LeftFoot -21.190837 -1.801240 -18.988652
LeftToeBase -22.299064 -0.000000 0.000000
Spine 16.618418 4.445461 -5.348600
RightShoulder 3.206997 -13.838858 -14.658358
RightArm 25.996247 -19.919334 53.171382
RightForeArm -8.205822 -0.000000 74.597032
RightHand 20.022802 -0.000000 -25.252870
RightHandThumb1 -24.326973 -0.000000 -32.862282
LeftShoulder -20.398593 27.063055 -0.117270
LeftArm 50.588150 21.792046 -65.018572
LeftForeArm 26.310998 -0.000000 58.438039
LeftHand -16.274837 -0.000000 -5.112593
LeftHandThumb1 -26.253704 0.000000 33.147579
Head -25.540064 -13.428945 2.614751
3852
root 4.094573 18.842717 37.741537 3.429747 16.463021 -3.613315
RightUpLeg -87.284265 -12.665614 -6.406636
RightLeg 95.840012 -0.000000 -0.000000
RightFoot -16.782330 -8.742421 18.576146
RightToeBase -351.021463 -0.000000 -0.000000
LeftUpLeg 10.808352 -13.180508 8.741477
LeftLeg 107.675058 -0.000000 -0.000000
LeftFoot -21.282113 -1.943563 -19.011214
LeftToeBase -22.293136 -0.000000 0.000000
Spine 16.723538 4.496921 -5.444774
RightShoulder 3.337478 -13.861765 -14.659074
RightArm 26.298480 -20.030478 52.985449
RightForeArm -7.925313 -0.000000 73.980211
RightHand 20.239461 -0.000000 -25.328138
RightHandThumb1 -24.326973 -0.000000 -32.862282
LeftShoulder -19.998551 26.830593 0.399425
LeftArm 51.087834 22.170999 -64.522237
LeftForeArm 26.249478 0.000000 58.327602
LeftHand -16.170674 0.000000 -5.160942
LeftHandThumb1 -26.253704 0.000000 33.147579
Head -25.301614 -13.380414 2.673213
3853
root 4.120285 18.875022 37.622726 3.132085 16.368660 -3.776844
RightUpLeg -86.947011 -12.537252 -6.373611
RightLeg 95.339343 -0.000000 -0.000000
RightFoot -16.367448 -8.820903 18.585886
RightToeBase -351.092273 -0.000000 -0.000000
LeftUpLeg 10.742374 -12.960471 8.742841
LeftLeg 107.562888 -0.000000 -0.000000
LeftFoot -21.431132 -2.032110 -19.039886
LeftToeBase -22.261259 -0.000000 0.000000
Spine 16.773494 4.569093 -5.547480
RightShoulder 3.474268 -13.868057 -14.674178
RightArm 26.608263 -20.229642 52.772271
RightForeArm -7.769213 -0.000000 73.343930
RightHand 20.244139 -0.000000 -25.759010
RightHandThumb1 -24.326973 -0.000000 -32.862282
LeftShoulder -19.685228 26.657021 0.889383
LeftArm 51.673715 22.549508 -64.040740
LeftForeArm 26.181431 0.000000 58.055863
LeftHand -16.114824 0.000000 -5.093049
LeftHandThumb1 -26.253704 0.000000 33.147579
Head -25.008849 -13.343433 2.721825
3854
root 4.146374 18.907218 37.504719 2.819279 16.281333 -3.911834
RightUpLeg -86.580654 -12.436459 -6.359708
RightLeg 94.835304 -0.000000 -0.000000
RightFoot -15.995680 -8.965063 18.544935
RightToeBase -350.768730 -0.000000 -0.000000
LeftUpLeg 10.714007 -12.757154 8.691277
LeftLeg 107.419400 -0.000000 -0.000000
LeftFoot -21.503848 -2.020804 -18.909415
LeftToeBase -22.601872 -0.000000 0.000000
Spine 16.842071 4.633687 -5.705465
RightShoulder 3.602972 -13.840034 -14.673512
RightArm 26.897377 -20.442848 52.567476
RightForeArm -7.467117 -0.000000 72.714274
RightHand 20.441283 -0.000000 -25.847159
RightHandThumb1 -24.326973 -0.000000 -32.862282
LeftShoulder -19.354196 26.468819 1.396263
LeftArm 52.241269 22.891096 -63.541018
LeftForeArm 26.109257 -0.000000 57.688510
LeftHand -15.939134 -0.000000 -5.578714
LeftHandThumb1 -26.253704 0.000000 33.147579
Head -24.733415 -13.258126 2.852173
3855
root 4.174973 18.936269 37.390148 2.500424 16.159761 -4.054221
RightUpLeg -86.221936 -12.301667 -6.360604
RightLeg 94.383050 -0.000000 -0.000000
RightFoot -15.595802 -9.018727 18.409076
RightToeBase -351.260842 -0.000000 -0.000000
LeftUpLeg 10.719544 -12.507873 8.654524
LeftLeg 107.258710 -0.000000 -0.000000
LeftFoot -21.643661 -2.127245 -18.956404
LeftToeBase -22.412514 -0.000000 0.000000
Spine 16.895334 4.734020 -5.839280
RightShoulder 3.671301 -13.869369 -14.687273
RightArm 27.253601 -20.681896 52.334630
RightForeArm -7.206574 -0.000000 72.076469
RightHand 20.596992 -0.000000 -25.862262
RightHandThumb1 -24.326973 -0.000000 -32.862282
LeftShoulder -19.004751 26.217513 1.908595
LeftArm 52.747223 23.251003 -63.028244
LeftForeArm 26.056964 -0.000000 57.241495
LeftHand -15.811386 -0.000000 -5.828510
LeftHandThumb1 -26.253704 0.000000 33.147579
Head -24.498707 -13.234400 2.983152
3856
root 4.203273 18.962829 37.272884 2.224198 16.042331 -4.176492
RightUpLeg -85.903041 -12.172876 -6.370272
RightLeg 93.891031 -0.000000 -0.000000
RightFoot -15.226468 -9.090173 18.470321
RightToeBase -351.226429 -0.000000 -0.000000
LeftUpLeg 10.670477 -12.255887 8.609173
LeftLeg 107.112340 -0.000000 -0.000000
LeftFoot -21.745361 -2.121378 -18.960159
LeftToeBase -22.541636 -0.000000 0.000000
Spine 16.879434 4.793941 -6.012994
RightShoulder 3.760937 -13.842526 -14.712279
RightArm 27.566014 -20.989197 52.147056
RightForeArm -6.998208 0.000000 71.429633
RightHand 20.783145 -0.000000 -25.975036
RightHandThumb1 -24.326973 -0.000000 -32.862282
LeftShoulder -18.705530 26.099028 2.361200
LeftArm 53.356410 23.523792 -62.483461
LeftForeArm 26.045451 -0.000000 56.708933
LeftHand -15.656668 -0.000000 -5.892393
LeftHandThumb1 -26.253704 0.000000 33.147579
Head -24.223888 -13.132352 3.114805
3857
root 4.234728 18.987599 37.162025 1.862437 15.897124 -4.300941
RightUpLeg -85.514351 -12.042318 -6.368700
RightLeg 93.427527 -0.000000 -0.000000
RightFoot -14.831830 -9.176248 18.457542
RightToeBase -351.214219 -0.000000 -0.000000
LeftUpLeg 10.741229 -11.970072 8.544605
LeftLeg 106.943098 -0.000000 -0.000000
LeftFoot -21.880695 -1.871600 -18.737742
LeftToeBase -22.656572 -0.000000 0.000000
Spine 16.950665 4.888476 -6.176523
RightShoulder 3.830291 -13.853628 -14.751623
RightArm 27.904392 -21.267864 51.972970
RightForeArm -6.655347 -0.000000 70.781338
RightHand 21.028699 0.000000 -26.144777
RightHandThumb1 -24.326973 -0.000000 -32.862282
LeftShoulder -18.402605 25.930369 2.819231
LeftArm 53.932810 23.788105 -61.961256
LeftForeArm 26.036618 -0.000000 56.075414
LeftHand -15.514330 -0.000000 -6.132544
LeftHandThumb1 -26.253704 0.000000 33.147579
Head -23.987971 -13.004963 3.257231
3858
root 4.265469 19.011530 37.051329 1.527676 15.766536 -4.395386
RightUpLeg -85.155387 -11.926562 -6.405534
RightLeg 92.981324 -0.000000 -0.000000
RightFoot -14.384532 -9.158203 18.522086
RightToeBase -351.317615 -0.000000 -0.000000
LeftUpLeg 10.790482 -11.715424 8.457944
LeftLeg 106.756908 -0.000000 -0.000000
LeftFoot -21.990576 -1.827418 -18.792206
LeftToeBase -22.743702 -0.000000 0.000000
Spine 16.987960 4.922827 -6.402665
RightShoulder 3.912111 -13.835076 -14.776444
RightArm 28.226519 -21.572126 51.836675
RightForeArm -6.327010 -0.000000 70.114435
RightHand 21.456867 -0.000000 -26.190670
RightHandThumb1 -24.326973 -0.000000 -32.862282
LeftShoulder -18.126528 25.786158 3.269884
LeftArm 54.435239 23.994297 -61.509441
LeftForeArm 26.083670 -0.000000 55.433656
LeftHand -15.416562 -0.000000 -6.494347
LeftHandThumb1 -26.253704 0.000000 33.147579
Head -23.743267 -12.885044 3.445443
3859
root 4.299359 19.033237 36.939060 1.182468 15.655994 -4.468723
RightUpLeg -84.798648 -11.847228 -6.453827
RightLeg 92.528538 -0.000000 -0.000000
RightFoot -13.937661 -9.268572 18.536014
RightToeBase -351.316359 -0.000000 -0.000000
LeftUpLeg 10.841632 -11.445298 8.346492
LeftLeg 106.596329 -0.000000 -0.000000
LeftFoot -22.115223 -1.523986 -18.698489
LeftToeBase -23.017484 -0.000000 0.000000
Spine 17.044404 4.891933 -6.657158
RightShoulder 4.037644 -13.759729 -14.824708
RightArm 28.438869 -21.905188 51.774249
RightForeArm -6.057197 -0.000000 69.529240
RightHand 21.582429 0.000000 -26.742295
RightHandThumb1 -24.326973 -0.000000 -32.862282
LeftShoulder -17.864487 25.631236 3.741266
LeftArm 54.828656 24.171127 -61.213469
LeftForeArm 26.214450 0.000000 54.737261
LeftHand -15.287553 0.000000 -6.803492
LeftHandThumb1 -26.253704 0.000000 33.147579
Head -23.534062 -12.700035 3.631889
3860
root 4.334147 19.054673 36.831191 0.811302 15.529551 -4.532641
RightUpLeg -84.413743 -11.739884 -6.510906
RightLeg 92.084277 -0.000000 -0.000000
RightFoot -13.446996 -9.306420 18.550110
RightToeBase -351.342410 -0.000000 -0.000000
LeftUpLeg 10.952842 -11.216603 8.189473
LeftLeg 106.430937 -0.000000 -0.000000
LeftFoot -22.263083 -1.268319 -18.724755
LeftToeBase -22.566702 -0.000000 0.000000
Spine 17.126242 4.957267 -6.902946
RightShoulder 4.035892 -13.795528 -14.827216
RightArm 28.730084 -22.170757 51.717837
RightForeArm -5.711513 -0.000000 68.923687
RightHand 22.071093 0.000000 -26.990456
RightHandThumb1 -24.326973 -0.000000 -32.862282
LeftShoulder -17.493781 25.438289 4.285174
LeftArm 55.080118 24.341504 -61.044881
LeftForeArm 26.399174 0.000000 54.043435
LeftHand -15.192942 -0.000000 -7.030909
LeftHandThumb1 -26.253704 0.000000 33.147579
Head -23.354747 -12.615533 3.854653
